<?xml version="1.0" encoding="UTF-8" standalone="no"?>
<!DOCTYPE svg PUBLIC "-//W3C//DTD SVG 20010904//EN"
              "http://www.w3.org/TR/2001/REC-SVG-20010904/DTD/svg10.dtd">

<svg xmlns="http://www.w3.org/2000/svg"
     width="2.66667in" height="2.66667in"
     viewBox="0 0 800 800">
  <path id="Selection"
        fill="white" stroke="black" stroke-width="1"
        d="M 35.00,108.39
           C 32.18,106.07 25.84,101.21 24.60,97.96
             22.38,92.17 26.22,84.69 29.36,80.00
             29.36,80.00 49.07,56.92 53.00,55.00
             62.33,50.46 68.19,55.88 75.00,61.59
             75.00,61.59 119.14,97.94 121.72,101.04
             124.57,104.46 124.35,106.41 125.93,108.91
             127.55,111.48 131.57,114.60 134.00,116.59
             135.77,118.03 138.55,120.73 141.00,120.38
             143.45,120.03 149.72,113.41 152.00,111.42
             152.00,111.42 181.00,88.29 181.00,88.29
             209.35,68.00 240.67,52.38 274.00,42.02
             407.35,0.58 557.54,47.48 639.42,162.00
             652.46,180.24 665.12,201.39 674.00,222.00
             674.00,222.00 692.98,214.78 692.98,214.78
             697.45,212.05 697.12,209.92 702.05,207.50
             702.05,207.50 767.50,182.41 771.99,183.35
             776.54,184.31 779.41,190.12 781.21,194.00
             781.21,194.00 792.06,229.42 792.06,229.42
             793.66,232.77 793.36,238.63 790.43,241.19
             788.26,243.09 764.02,251.42 764.00,251.42
             764.00,251.42 721.00,267.17 721.00,267.17
             716.20,268.22 715.35,265.84 711.00,266.58
             711.00,266.58 692.00,272.00 692.00,272.00
             692.00,272.00 697.73,302.00 697.73,302.00
             701.01,323.30 702.10,344.48 702.00,366.00
             702.00,366.00 701.04,378.00 701.04,378.00
             697.63,455.65 660.50,536.81 605.00,590.99
             560.67,634.26 505.45,664.07 445.00,677.42
             430.00,680.74 404.10,684.82 389.00,685.00
             389.00,685.00 359.00,685.00 359.00,685.00
             354.19,684.94 343.03,682.11 339.98,686.31
             338.55,688.29 336.26,701.51 336.71,704.00
             337.25,706.98 339.03,708.15 338.89,713.00
             338.89,713.00 327.79,785.83 322.87,789.40
             320.71,790.97 318.53,790.95 316.00,791.00
             304.29,791.21 270.53,784.28 267.73,779.95
             265.53,776.47 266.98,773.62 267.73,770.00
             267.73,770.00 279.06,705.00 279.06,705.00
             280.51,699.77 282.72,699.10 284.57,695.00
             286.27,691.25 287.90,678.40 288.00,674.00
             281.47,673.07 271.53,669.51 265.00,667.33
             244.67,660.56 225.58,651.45 207.00,640.85
             127.52,595.48 71.23,517.11 51.58,428.00
             48.04,411.98 46.05,397.33 44.91,381.00
             44.91,381.00 44.00,371.00 44.00,371.00
             44.00,371.00 44.00,343.00 44.00,343.00
             44.00,343.00 44.91,331.00 44.91,331.00
             47.53,293.59 56.68,257.47 71.43,223.00
             76.53,211.08 85.02,195.08 91.81,184.00
             91.81,184.00 103.89,165.00 103.89,165.00
             105.17,160.54 99.90,157.22 97.00,154.72
             94.90,152.90 92.62,150.57 90.00,149.60
             87.39,148.64 84.96,149.46 82.42,148.01
             78.14,145.56 41.58,113.78 35.00,108.39 Z
           M 561.00,264.00
           C 561.00,264.00 586.00,255.29 586.00,255.29
             588.48,254.36 593.41,252.45 594.30,249.74
             595.07,247.39 593.27,244.05 592.22,242.00
             592.22,242.00 582.17,225.00 582.17,225.00
             566.66,201.16 549.27,181.19 527.00,163.40
             481.73,127.24 426.69,108.91 369.00,109.00
             355.13,109.02 325.40,113.05 312.00,116.74
             287.36,123.54 264.76,132.85 243.00,146.42
             243.00,146.42 230.00,155.31 230.00,155.31
             223.69,159.45 217.66,164.27 212.00,169.29
             210.26,170.83 207.20,173.47 207.20,176.00
             207.20,178.53 210.26,181.17 212.00,182.71
             212.00,182.71 232.00,199.06 232.00,199.06
             233.39,199.81 234.41,200.17 236.00,199.87
             238.98,199.32 251.52,189.16 255.00,186.72
             272.45,174.53 299.25,162.03 320.00,157.04
             337.79,152.76 358.71,149.79 377.00,150.00
             377.00,150.00 387.00,150.91 387.00,150.91
             440.42,154.65 486.01,174.99 524.00,213.00
             536.61,225.62 553.65,247.73 561.00,264.00 Z
           M 202.00,243.00
           C 197.55,236.84 185.50,227.55 179.00,223.04
             176.62,221.39 172.19,218.05 169.18,219.23
             166.48,220.30 164.04,225.53 162.55,228.00
             162.55,228.00 150.12,251.00 150.12,251.00
             134.00,285.61 125.94,322.84 126.00,361.00
             126.00,361.00 126.91,373.00 126.91,373.00
             130.50,424.26 148.35,471.63 180.51,512.00
             187.30,520.52 195.26,528.34 203.00,536.00
             223.25,556.01 247.39,570.77 273.00,582.78
             273.00,582.78 292.00,590.41 292.00,590.41
             294.19,591.20 297.49,592.65 299.78,591.68
             302.49,590.53 303.42,586.58 304.12,584.00
             304.12,584.00 309.00,561.00 309.00,561.00
             302.04,560.66 296.37,557.84 290.00,555.19
             275.84,549.29 262.44,541.35 250.00,532.42
             208.52,502.64 178.48,456.94 167.66,407.00
             163.12,386.03 162.97,374.04 163.00,353.00
             163.04,326.80 172.56,291.38 184.25,268.00
             187.92,260.66 194.75,246.51 202.00,243.00 Z
           M 614.00,302.00
           C 614.00,302.00 580.00,313.00 580.00,313.00
             580.00,313.00 584.00,343.00 584.00,343.00
             584.00,343.00 584.99,362.00 584.99,362.00
             584.99,362.00 583.96,381.00 583.96,381.00
             582.94,390.35 581.45,399.84 579.35,409.00
             561.47,486.98 500.06,548.89 422.00,566.65
             411.71,568.99 395.40,571.87 385.00,572.00
             385.00,572.00 366.00,572.00 366.00,572.00
             363.88,572.04 361.44,571.92 359.85,573.60
             357.63,575.94 355.73,591.01 355.07,595.00
             354.76,596.96 353.84,600.71 355.07,602.40
             356.48,604.37 360.81,604.00 363.00,604.00
             363.00,604.00 382.00,604.00 382.00,604.00
             397.39,603.82 420.02,599.83 435.00,595.88
             539.53,568.32 615.33,476.17 620.04,368.00
             620.04,368.00 620.09,347.00 620.09,347.00
             619.05,331.79 618.27,316.78 614.00,302.00 Z" />
</svg>
